<svg aria-hidden="true" style="position: absolute; width: 0; height: 0; overflow: hidden;" version="1.1" xmlns="http://www.w3.org/2000/svg" xmlns:xlink="http://www.w3.org/1999/xlink">
<defs>
<symbol id="icon-github" viewBox="0 0 32 32">
<path d="M16-0.074c-8.836 0.054-15.978 7.23-15.978 16.074 0 7.414 5.020 13.656 11.847 15.512l0.113 0.026v-3.483h-2.009c-1.072 0-2.143-0.536-2.679-1.339-0.402-0.938-0.536-2.545-1.741-3.349-0.402-0.402-0.134-0.67 0.268-0.67 0.804 0.268 1.473 0.804 2.143 1.607 0.67 0.938 0.938 1.072 2.143 1.072l2.277-0.134c0.402-1.206 1.206-2.143 2.143-2.679-5.358-0.536-8.037-3.215-8.037-6.697 0-1.607 0.804-3.215 1.875-4.42-0.268-1.339-0.804-3.885 0.134-4.822 2.411 0 4.018 1.607 4.286 2.009 1.158-0.408 2.494-0.643 3.885-0.643s2.726 0.236 3.969 0.669l-0.084-0.026c0.402-0.402 1.875-2.009 4.286-2.009 0.938 0.938 0.402 3.617 0 4.822 1.206 1.339 1.875 2.679 1.875 4.286 0 3.617-2.679 6.296-7.903 6.831 1.473 0.804 2.545 2.947 2.545 4.554v4.018c6.269-2.288 10.664-8.199 10.664-15.136 0-8.859-7.167-16.044-16.020-16.074h-0.003z"></path>
</symbol>
<symbol id="icon-linkedin" viewBox="0 0 32 32">
<path d="M32 32v-11.68c0-5.76-1.28-10.24-8-10.24-3.2 0-5.28 1.76-6.24 3.52v-3.040h-6.56v21.44h6.56v-10.56c0-2.88 0.48-5.44 4-5.44 3.36 0 3.52 3.2 3.52 5.6v10.4h6.72zM0.48 10.56h6.72v21.44h-6.72v-21.44zM3.84 0c-2.080 0-3.84 1.6-3.84 3.84 0 2.080 1.6 3.84 3.84 3.84 2.121 0 3.84-1.719 3.84-3.84s-1.719-3.84-3.84-3.84v0z"></path>
</symbol>
</defs>
</svg>
